<?xml version="1.0" encoding="utf-8"?>
<!-- Generator: Adobe Illustrator 27.3.1, SVG Export Plug-In . SVG Version: 6.00 Build 0)  -->
<svg version="1.1" id="Layer_1" xmlns="http://www.w3.org/2000/svg" xmlns:xlink="http://www.w3.org/1999/xlink" x="0px" y="0px"
	 viewBox="0 0 1920 1080" style="enable-background:new 0 0 1920 1080;" xml:space="preserve">
<style type="text/css">
	.st0{fill:#FDFDFD;}
	.st1{fill:#00AEEF;}
	.st2{fill:#414142;}
	.st3{fill:#00587E;}
	.st4{fill:#8F8F8F;}
	.st5{fill:#ADDDEF;}
	.st6{fill:#C1C4C5;}
	.st7{fill:#AAAAAA;}
	.st8{fill:#008ABF;}
</style>
<g>
	<g>
		<path class="st0" d="M748,672.2c0-88.4,0-176.8,0-265.2c141.4,0,282.8,0,424.2,0c0,88.4,0,176.8,0,265.2
			C1030.8,672.2,889.4,672.2,748,672.2z M1023.11,448.9c1.68,3.57,3.34,7.14,5.06,10.69c0.05,0.11,0.56,0,0.85,0
			c3.78,0.03,7.55,0.15,11.33,0.04c0.93-0.03,2.25-0.56,2.68-1.28c1.68-2.83,3.07-5.82,4.56-8.76c-1.65-3.31-3.27-6.63-5-9.9
			c-0.17-0.32-1.07-0.34-1.62-0.34c-3.99,0-7.97,0.05-11.96,0.08C1027.04,442.59,1025.07,445.74,1023.11,448.9z M960.19,548.88
			c2.15,3.56,4.3,7.12,6.46,10.67c4.03-0.17,8.05-0.31,12.08-0.53c0.52-0.03,1.28-0.29,1.5-0.69c1.71-3.12,3.32-6.3,4.97-9.46
			c0.01-0.39,0.17-0.86,0.02-1.17c-1.33-2.57-2.63-5.16-4.13-7.63c-0.41-0.67-1.45-1.32-2.22-1.33c-4.06-0.1-8.12,0.01-12.18,0.05
			c-0.61,0.68-1.34,1.3-1.81,2.07C963.26,543.5,961.74,546.2,960.19,548.88z M1134.45,632.08c-1.5-0.34-2.09,0.31-2.41,1.78
			c-0.51,2.36-1.3,4.66-2.08,7.37c-0.57-1.97-0.9-3.61-1.52-5.13c-0.57-1.4-1.44-2.67-2.18-4c-0.64,1.33-1.29,2.66-1.93,3.99
			c-0.46,0.95-0.9,1.91-1.48,3.16c-2.23-2.49-0.92-6.15-4.41-7.45c1.09,3.95,1.98,7.36,3.01,10.72c0.19,0.61,0.94,1.05,1.44,1.57
			c0.46-0.54,1.14-1.01,1.35-1.64c0.73-2.18,1.3-4.42,2.18-7.52c0.85,2.93,1.36,5.01,2.09,7.02c0.29,0.79,1.06,1.41,1.61,2.11
			c0.45-0.68,1.09-1.3,1.32-2.04c0.92-2.88,1.71-5.79,2.54-8.69c0.25,4.8,0.49,9.6,0.74,14.4c0.05,0,0.09,0,0.14-0.01
			c0-5.6,0-11.21,0-16.81c-0.11,0-0.22,0-0.33,0C1134.49,631.31,1134.47,631.7,1134.45,632.08z M776.79,627.99
			c-0.55,0.17-1.09,0.35-1.64,0.52c0.03,0.17,0.07,0.34,0.1,0.51c0.51,0,1.03,0,1.54,0c0.8,0.03,1.59,0.08,2.39,0.08
			c117.4,0,234.81,0,352.21,0c0.86,0,1.72,0,2.59,0c-0.01-0.21-0.01-0.43-0.02-0.64c-0.99,0-1.97,0-2.96,0c-18.37,0-36.74,0-55.11,0
			c-81.56,0.01-163.13,0.06-244.69,0.02C813.06,628.46,794.92,628.16,776.79,627.99z M922.67,599.12c-0.07,0.07-0.2,0.15-0.19,0.2
			c0.03,0.17,0.12,0.33,0.19,0.49c0,5.93,0,11.86,0,17.74c1.72,0,2.87,0,4.33,0c0-7.17,0-14.18,0-21.18
			c0.3-0.19,0.59-0.38,0.89-0.58c0.25,0.53,0.42,1.12,0.77,1.58c4.26,5.57,8.59,11.08,12.81,16.68c1.82,2.42,3.49,4.85,7.05,3.33
			c0-9.66,0-19.27,0-28.81c-1.41,0-2.58,0-4.1,0c0,7.34,0,14.54,0,22.02c-1.05-1-1.87-1.6-2.46-2.37
			c-4.26-5.53-8.45-11.1-12.7-16.64c-1.54-2.01-3.02-4.29-6.59-2.66C922.67,592.19,922.67,595.66,922.67,599.12z M887.22,599.11
			c0-1.57-0.01-3.13-0.01-4.7c0.15-0.57,0.3-1.15,0.45-1.72c5.14,0,10.28,0,15.52,0c0,0.94-0.01,1.53,0,2.13
			c0.02,0.58,0.06,1.15,0.09,1.69c3.96,0.45,4.25,0.21,4.1-3.3c-0.13-3.01-1.79-4.72-4.89-4.77c-4.79-0.08-9.57-0.04-14.36-0.02
			c-3.39,0.01-5.05,1.33-5.14,4.7c-0.17,6.67-0.14,13.35-0.01,20.02c0.06,3.21,1.72,4.57,4.95,4.58c4.89,0.01,9.78-0.11,14.66,0.04
			c2.91,0.09,4.42-1.6,4.67-3.92c0.39-3.61,0.1-7.28,0.1-10.91c-4.4,0-8.43,0-12.45,0c-0.2,3.99-0.2,3.99,3.64,4
			c1.47,0,2.93,0,4.46,0c0,2.34,0,4.37,0,6.51c-5.24,0-10.31,0-15.37,0c-0.15-0.19-0.29-0.38-0.44-0.57
			c0.01-0.56,0.01-1.13,0.02-1.69c0-0.23,0-0.47,0-0.7c0-3.56,0-7.11,0-10.67C887.22,599.58,887.22,599.35,887.22,599.11z
			 M1021.6,599.12c0,0.23,0,0.46,0,0.69c0,3.56,0,7.12,0,10.68c0,0.23,0,0.46,0,0.69c0,2.14,0,4.27,0,6.54
			c6.12,0,11.7,0.09,17.27-0.04c2.65-0.06,4.93-1.24,5.35-4.14c0.34-2.32,0.89-5.04,0.03-7c-1.39-3.15-1.22-5.91-0.41-9.03
			c1.14-4.43-1.64-8.68-6.11-8.96c-5.23-0.34-10.51-0.08-16.13-0.08C1021.6,592.2,1021.6,595.66,1021.6,599.12z M915.14,429.65
			c-1,1.54-1.99,3.08-3,4.61c-2.28,3.5-4.79,6.88-6.81,10.53c-3.36,6.06-6.44,12.27-9.57,18.45c-0.68,1.35-1.06,2.86-1.58,4.3
			c1.2,1.69,0.98,4.67,4.02,4.69c8.56,0.05,17.11,0.02,25.8,0.02c0.28-1.67,0.53-3.2,0.78-4.72c0.18-0.32,0.43-0.63,0.54-0.97
			c5.19-16.45,15.61-28.17,31.58-34.87c1.45-0.61,2.88-1.28,4.32-1.93c0.3-0.03,0.6-0.02,0.89-0.1c0.12-0.03,0.2-0.25,0.38-0.49
			c-14.39,0-28.7-0.01-43,0.02C918.04,429.19,916.59,429.49,915.14,429.65z M1066.84,508.16c0.06-0.39,0.3-0.89,0.15-1.17
			c-2.15-3.86-4.38-7.69-6.55-11.54c-4.82-8.54-9.58-17.12-14.5-25.6c-0.5-0.87-1.9-1.67-2.91-1.71
			c-5.87-0.19-11.75-0.14-17.62-0.18c-0.4-1.08-0.82-2.15-1.2-3.24c-3.41-9.94-9.69-17.79-18.07-23.88
			c-7.09-5.16-15.03-8.2-23.97-8.91c-3.44-0.27-6.6-0.47-10.12-0.15c-5.18,0.47-10.05,1.91-14.56,3.67
			c-11.9,4.64-20.62,13.35-26.04,24.88c-3.95,8.39-5.68,17.28-4.42,26.79c1.45,10.95,5.5,20.53,12.91,28.63
			c6.65,7.26,14.65,12.45,24.42,14.59c6.51,1.43,13.03,2.7,19.71,1.07c0.67,0.94,1.39,1.85,1.99,2.83
			c2.56,4.23,5.08,8.49,7.61,12.73c7.87,0.03,15.75,0,23.62,0.12c4.34,0.07,8.67,0.55,13,0.55c4.34,0,8.68-0.31,13.01-0.63
			c0.78-0.06,1.82-0.6,2.21-1.24c1.93-3.14,3.68-6.4,5.5-9.61C1056.28,526.84,1061.56,517.5,1066.84,508.16z M923.25,488.93
			c0-4.86,0-9.44,0-14.45c-25.73,0-51.57,0-77.38,0c0,4.73,0,9.56,0,14.45C871.78,488.93,897.5,488.93,923.25,488.93z M851.66,605.1
			c4.99,0,9.63,0,14.4,0c-0.07-1.36-0.12-2.4-0.17-3.22c-3.18-0.34-6.01-0.75-8.86-0.92c-5.42-0.33-5.43-0.28-5.37-5.82
			c0.01-0.77,0.08-1.53,0.14-2.61c5.83,0,11.46,0,17.09,0c0-1.48,0-2.64,0-3.94c-7.15,0-14.18,0-21.22,0c0,9.8,0,19.4,0,29.01
			c7.19,0,14.14,0,21.18,0c0-1.38,0-2.61,0-4.05c-4.55,0-8.93-0.02-13.31,0.01c-2.58,0.02-3.83-1.25-3.88-3.77
			C851.64,608.39,851.66,607,851.66,605.1z M1093.89,592.55c-6.02,8.51-11.66,16.5-17.7,25.05c8.61,0,16.22,0,23.95,0
			c0-1.36,0-2.59,0-4.01c-5.31,0-10.46,0-15.99,0c5.81-8.38,11.42-16.46,17.35-25.01c-8.47,0-16.09,0-23.74,0c0,1.41,0,2.64,0,3.97
			C1083.04,592.55,1088.11,592.55,1093.89,592.55z M961.71,617.44c4.03,0.54,4.03,0.54,6.63-6.31c3.43,0,6.92,0.09,10.39-0.03
			c2.02-0.07,3.14,0.28,3.72,2.6c0.63,2.49,1.67,5.41,5.55,3.77c-0.1-0.44-0.16-1.02-0.37-1.54c-3.36-8.56-6.71-17.13-10.19-25.64
			c-0.33-0.81-1.55-1.76-2.34-1.74c-0.99,0.03-2.57,0.79-2.82,1.58c-1.76,5.5-5.01,10.37-6.46,16.02
			C964.84,609.99,963.12,613.64,961.71,617.44z M808.33,588.61c2.5,3.9,4.88,7.53,7.17,11.22c1.98,3.19,4.62,6.07,3.87,10.41
			c-0.41,2.38-0.07,4.9-0.07,7.39c1.55,0,2.72,0,4.35,0c0.13-2.09,0.08-4.13,0.41-6.1c0.49-2.89,0.7-6.02,2.01-8.53
			c2.57-4.91,5.83-9.46,8.94-14.39c-2.95-0.4-5.03-0.53-6.52,2.62c-1.76,3.72-4.39,7.03-6.85,10.82c-2.48-3.86-5.11-7.11-6.79-10.8
			C813.4,588.01,811.29,588.26,808.33,588.61z M923.8,492.09c-5.13,0-10.3,0-15.88,0c2.28,4.06,4.45,7.95,6.67,11.81
			c0.19,0.33,0.75,0.63,1.13,0.64c3.96,0.05,7.92,0.03,12.12,0.03C926.44,500.23,925.13,496.2,923.8,492.09z M1059.14,588.55
			c0,9.83,0,19.44,0,28.97c1.44,0,2.66,0,3.88,0c0-9.77,0-19.29,0-28.97C1061.71,588.55,1060.54,588.55,1059.14,588.55z
			 M978.36,636.46c1,2.72-0.81,5.6,1.94,8.39c0-4.76,0-8.69,0-13.41c-3.55,2.42-3.77,6.49-6.13,9.03c-2.37-2.61-2.43-6.76-6.33-8.98
			c0,4.22-0.04,7.69,0.04,11.15c0.01,0.48,0.61,0.95,0.94,1.43c0.29-0.51,0.78-1,0.83-1.53c0.13-1.24,0.04-2.49,0.04-3.74
			c0.3-0.11,0.6-0.23,0.91-0.34c1.04,1.89,2.08,3.78,3.42,6.21C975.69,641.53,976.96,639.12,978.36,636.46z M838.92,631.67
			c-0.94,3.35-1.72,6.16-2.53,9.04c-2.07-2.52-1.06-6.55-4.12-8.4c0.59,3.46,1.53,6.73,2.61,9.95c0.26,0.79,0.97,1.43,1.85,2.66
			c1.16-3.66,2.02-6.41,3.11-9.86c0.98,3.47,1.74,6.17,2.5,8.86c2.13-0.04,4.16-4.83,4.56-11.77c-2.57,2.07-1.99,5.73-3.58,8.37
			C841.26,637.92,842.65,633.68,838.92,631.67z M813.31,637.83c0,1.29-0.27,2.66,0.09,3.84c0.29,0.93,1.24,2.15,2.09,2.33
			c7.21,1.51,8.61,0.34,8.6-6.83c0-0.5,0-0.99,0-1.49c-0.01-3.99-0.2-4.15-4.23-4.19C813.17,631.41,813.17,631.13,813.31,637.83z
			 M958.9,637.92c0.12-6.81,0.21-6.52-6.45-6.42c-0.2,0-0.4,0.02-0.59,0c-2.84-0.31-4.02,1-3.75,3.78c0.07,0.79,0.03,1.59,0.01,2.38
			c-0.16,7.04,0.08,6.47,6.44,6.45c4.14-0.01,4.33-0.2,4.34-4.41C958.9,639.11,958.9,638.51,958.9,637.92z M1110.51,638.03
			c0-1.39,0.06-2.78-0.03-4.17c-0.04-0.6-0.38-1.67-0.63-1.68c-2.87-0.14-5.75-0.2-8.62-0.03c-0.35,0.02-0.83,1.45-0.89,2.25
			c-0.13,1.88-0.05,3.77-0.04,5.66c0.01,4.02,0.01,4.03,4.2,4.03C1111.51,644.09,1110.43,644.64,1110.51,638.03z M1089.56,640.47
			c-3.53-2.65-4.36-7.38-9.03-8.67c0,3.98-0.03,7.45,0.03,10.92c0.01,0.45,0.47,0.89,0.73,1.33c0.36-0.44,1-0.87,1.02-1.33
			c0.1-2.42,0.05-4.84,0.05-7.68c3.59,2.78,4.71,7.28,8.78,9.28c0.64-9.91,0.41-11.75-1.59-12.01
			C1089.56,634.9,1089.56,637.46,1089.56,640.47z M794.22,643.75c0.37,0.15,0.73,0.29,1.1,0.44c1.44-2.71,0-6.04,0.79-8.86
			c3.29,2.62,4.46,7.07,8.81,9.25c0-4.19,0.03-7.66-0.03-11.13c-0.01-0.44-0.47-0.88-0.72-1.32c-0.34,0.45-0.96,0.88-0.99,1.35
			c-0.1,2.23-0.05,4.47-0.05,6.88c-3.8-2.01-4.35-7.16-8.9-8.46C794.22,636.24,794.22,639.99,794.22,643.75z M1025.5,634.51
			c3.09,3.8,5.58,6.86,8.45,10.39c1.1-7.17,0.61-12.15-1.49-12.9c0,2.71,0,5.27,0,8.12c-3.44-2.54-4.12-7.3-8.67-8.19
			c-0.71,9.34-0.42,11.68,1.7,11.89C1025.5,640.98,1025.5,638.16,1025.5,634.51z M902.12,644.1c2.72,0,5.11,0.06,7.49-0.05
			c0.46-0.02,0.89-0.67,1.33-1.02c-0.44-0.25-0.87-0.71-1.33-0.73c-1.86-0.08-3.73-0.03-5.68-0.03c0-1.29,0-2.33,0-3.58
			c0.92,0,1.71,0.1,2.47-0.02c1.13-0.18,2.24-0.53,3.36-0.8c-1.07-0.33-2.12-0.73-3.2-0.95c-0.84-0.17-1.72-0.13-2.75-0.18
			c0.05-1.24,0.1-2.27,0.15-3.44c2.13,0,4.02,0.05,5.89-0.04c0.38-0.02,0.74-0.61,1.1-0.94c-0.33-0.27-0.65-0.75-0.98-0.76
			c-2.63-0.06-5.27-0.04-7.84-0.04C902.12,635.9,902.12,639.85,902.12,644.1z M991.71,639.27c1.18,0,2.37-0.03,3.56,0.01
			c2.06,0.07,3.76-0.15,3.82-2.86c0.08-3.41-0.61-4.63-3.47-4.88c-2.02-0.18-4.07-0.03-5.97-0.03c0,4.47,0,8.5,0,12.92
			C992.38,643.23,990.51,640.88,991.71,639.27z M884.01,632c-0.29,0.06-0.58,0.11-0.86,0.17c-1.02,5.47-0.49,11.21,1.32,11.93
			c0.09-1.8,0.18-3.52,0.27-5.23c2.25,0,4.28,0,5.95,0c1.45,1.65-0.82,4.24,1.96,5.46c1.06-6.47,0.46-11.81-1.5-11.97
			c0,1.46,0,2.9,0,4.37c-2.29,0-4.33,0-6.22,0C884.59,635.03,884.3,633.52,884.01,632z M785.61,644.67
			c0.21-0.28,0.42-0.57,0.62-0.85c-1.98-2.15-3.95-4.3-5.85-6.36c1.53-1.42,3.45-3.19,5.36-4.96c-0.21-0.28-0.42-0.55-0.63-0.83
			c-2.25,1.59-4.49,3.17-6.9,4.87c-0.25-1.85-0.42-3.15-0.59-4.44c-0.24,0.04-0.48,0.07-0.72,0.11c0,3.92,0,7.85,0,11.77
			c0.3,0.14,0.6,0.28,0.9,0.41c0.65-1.21,1.31-2.43,1.99-3.69C781.52,641.88,783.56,643.27,785.61,644.67z M939.5,634.63
			c0.34-2.67,0.07-3.01-2.67-3.13c-6.69-0.31-6.71-0.31-6.69,6.27c0.02,7.6-0.75,6.12,6.6,6.37c2.89,0.1,3.48-1.13,2.88-3.09
			c-2.74,0.54-5.37,1.06-8.06,1.6c0-3.61,0-6.43,0-9.89C934.37,633.41,936.85,634,939.5,634.63z M1015.82,644.8
			c0.09-0.32,0.19-0.64,0.28-0.96c-1.31-3.5-2.58-7.02-3.96-10.49c-0.21-0.52-0.87-1.06-1.41-1.18c-0.38-0.09-1.17,0.43-1.34,0.85
			c-1.46,3.59-2.81,7.22-4.2,10.83c0.13,0.32,0.25,0.64,0.38,0.96C1009,639.22,1012.42,639.77,1015.82,644.8z M870.82,633.29
			c1.15,0,1.87,0.1,2.54-0.03c0.57-0.11,1.09-0.48,1.63-0.73c-0.55-0.34-1.07-0.92-1.65-0.98c-1.38-0.15-2.79-0.15-4.17-0.02
			c-1.25,0.12-2.47,0.48-3.71,0.73c1.08,0.5,2.16,1.01,3.58,1.66c0,2.59-0.04,5.56,0.03,8.52c0.01,0.55,0.48,1.08,0.74,1.62
			c0.34-0.55,0.95-1.08,0.97-1.64C870.87,639.46,870.82,636.5,870.82,633.29z M1052.37,632.12c-0.16-0.15-0.32-0.29-0.48-0.44
			c-1.38,1.84-2.76,3.68-4.16,5.54c-1.78-1.31-1.55-4.88-5.34-5.17c1.58,2.4,3.08,4.16,3.95,6.19c0.79,1.84,0.87,3.97,1.27,5.98
			C1049.33,639.86,1050.85,635.99,1052.37,632.12z M775.11,647.18c0.1,0,0.21,0,0.31,0c0-5.48,0-10.96,0-16.43c-0.1,0-0.21,0-0.31,0
			C775.11,636.23,775.11,641.71,775.11,647.18z"/>
		<path class="st1" d="M993.66,546.98c-2.53-4.25-5.05-8.5-7.61-12.73c-0.6-0.99-1.32-1.89-1.99-2.83
			c-0.78-0.98-1.75-1.87-2.31-2.96c-1.3-2.55-2.39-5.2-3.57-7.81c-2.4-4.37-4.8-8.73-7.2-13.1c0.16-0.2,0.32-0.41,0.48-0.61
			l-0.04,0.02c14.5,0,29.01,0,44,0c-7.43-13.23-14.6-26.01-21.78-38.79c6.59-0.07,13.19-0.13,19.78-0.2c3.99,0,7.99,0,11.98,0
			c5.87,0.03,11.75-0.01,17.62,0.18c1.01,0.03,2.41,0.84,2.91,1.71c4.92,8.48,9.68,17.06,14.5,25.6c2.17,3.85,4.4,7.68,6.55,11.54
			c0.15,0.28-0.09,0.77-0.15,1.17c-15.65-0.03-31.3,0.06-46.95-0.18c-3.38-0.05-5.06,1.05-6.64,3.97
			C1006.89,523.71,1000.22,535.32,993.66,546.98z"/>
		<path class="st2" d="M1025.41,467.96c-3.99,0-7.99,0-11.98,0c-2.9-4.57-5.32-9.57-8.83-13.62c-4.94-5.71-11.59-8.87-19.1-10.48
			c-9.48-2.03-18.59-1.37-27.04,3.28c-14.81,8.15-22.88,23.93-20.01,41.68c2.94,18.21,21.24,33.62,39.74,31.82
			c1.18,2.61,2.27,5.26,3.57,7.81c0.56,1.1,1.53,1.98,2.31,2.96c-6.68,1.63-13.21,0.35-19.71-1.07
			c-9.76-2.14-17.76-7.33-24.42-14.59c-7.41-8.1-11.46-17.68-12.91-28.63c-1.26-9.51,0.47-18.39,4.42-26.79
			c5.43-11.53,14.14-20.24,26.04-24.88c4.51-1.76,9.38-3.2,14.56-3.67c3.52-0.32,6.68-0.12,10.12,0.15
			c8.94,0.7,16.88,3.75,23.97,8.91c8.37,6.09,14.66,13.94,18.07,23.88C1024.58,465.81,1025.01,466.88,1025.41,467.96z"/>
		<path class="st3" d="M993.66,546.98c6.56-11.67,13.23-23.27,19.59-35.04c1.58-2.92,3.25-4.02,6.64-3.97
			c15.65,0.24,31.3,0.15,46.95,0.18c-5.28,9.34-10.56,18.68-15.84,28.02c-1.82,3.21-3.57,6.47-5.5,9.61
			c-0.39,0.64-1.43,1.18-2.21,1.24c-4.33,0.32-8.67,0.63-13.01,0.63c-4.33,0-8.67-0.49-13-0.55
			C1009.41,546.99,1001.54,547.02,993.66,546.98z"/>
		<path class="st1" d="M894.19,467.54c0.52-1.44,0.9-2.95,1.58-4.3c3.13-6.18,6.21-12.4,9.57-18.45c2.02-3.65,4.52-7.02,6.81-10.53
			c1-1.54,2-3.08,3-4.61c15.36,0.04,30.73,0.07,46.09,0.11c-1.44,0.64-2.87,1.32-4.32,1.93c-15.97,6.7-26.4,18.41-31.58,34.87
			c-0.11,0.35-0.36,0.65-0.54,0.97C914.59,467.53,904.39,467.54,894.19,467.54z"/>
		<path class="st2" d="M923.25,488.93c-25.75,0-51.47,0-77.38,0c0-4.89,0-9.71,0-14.45c25.82,0,51.65,0,77.38,0
			C923.25,479.5,923.25,484.07,923.25,488.93z"/>
		<path class="st1" d="M1021.6,610.49c0-3.56,0-7.12,0-10.68c0-0.23,0-0.46,0-0.69c0-3.46,0-6.92,0-10.65
			c5.62,0,10.9-0.26,16.13,0.08c4.47,0.29,7.25,4.54,6.11,8.96c-0.81,3.12-0.98,5.88,0.41,9.03c0.86,1.96,0.31,4.68-0.03,7
			c-0.42,2.9-2.7,4.07-5.35,4.14c-5.57,0.13-11.14,0.04-17.27,0.04c0-2.26,0-4.4,0-6.54C1021.6,610.95,1021.6,610.72,1021.6,610.49z
			 M1033.17,605.16c-1.69,0-3.4-0.15-5.07,0.03c-4.14,0.44-0.93,4.23-2.54,5.98c-0.35,0.39,0.42,1.87,0.8,2.8
			c0.07,0.18,0.74,0.15,1.13,0.15c3.08,0.01,6.17,0.13,9.25-0.03c2.3-0.11,3.74-1.14,3.7-3.88c-0.07-5.06,0.05-5.07-4.88-5.06
			C1034.76,605.15,1033.96,605.15,1033.17,605.16z M1025.42,592.45c0,2.34-0.2,4.32,0.09,6.23c0.12,0.82,1.26,2.12,1.94,2.13
			c3.43,0.03,6.87-0.19,10.28-0.55c1.82-0.19,2.37-1.72,2.02-3.33c-0.28-1.29-0.82-3.5-1.48-3.58
			C1034.12,592.79,1029.91,592.71,1025.42,592.45z"/>
		<path class="st1" d="M887.63,613.45c5.07,0,10.13,0,15.37,0c0-2.14,0-4.16,0-6.51c-1.53,0-2.99,0-4.46,0c-3.83,0-3.83-0.01-3.64-4
			c4.02,0,8.05,0,12.45,0c0,3.63,0.29,7.3-0.1,10.91c-0.25,2.32-1.76,4.01-4.67,3.92c-4.88-0.16-9.77-0.03-14.66-0.04
			c-3.22-0.01-4.88-1.37-4.95-4.58c-0.13-6.67-0.16-13.35,0.01-20.02c0.08-3.38,1.74-4.69,5.14-4.7c4.79-0.02,9.57-0.06,14.36,0.02
			c3.1,0.05,4.76,1.76,4.89,4.77c0.15,3.51-0.14,3.76-4.1,3.3c-0.03-0.54-0.08-1.12-0.09-1.69c-0.02-0.59,0-1.19,0-2.13
			c-5.24,0-10.38,0-15.52,0c-0.15,0.57-0.3,1.15-0.45,1.72c0,1.57,0.01,3.13,0.01,4.7c0,0.23,0,0.47,0,0.7c0,3.56,0,7.11,0,10.67
			c0,0.23,0,0.47,0,0.7c-0.01,0.56-0.01,1.13-0.02,1.69C887.34,613.07,887.49,613.26,887.63,613.45z"/>
		<path class="st1" d="M922.67,599.12c0-3.46,0-6.93,0-10.2c3.56-1.63,5.04,0.65,6.59,2.66c4.25,5.54,8.44,11.11,12.7,16.64
			c0.59,0.77,1.41,1.37,2.46,2.37c0-7.48,0-14.68,0-22.02c1.52,0,2.68,0,4.1,0c0,9.55,0,19.15,0,28.81
			c-3.56,1.52-5.23-0.91-7.05-3.33c-4.22-5.6-8.55-11.11-12.81-16.68c-0.35-0.45-0.51-1.05-0.77-1.58c-0.3,0.19-0.59,0.38-0.89,0.58
			c0,7,0,14.01,0,21.18c-1.46,0-2.61,0-4.33,0c0-5.89,0-11.81,0-17.74C922.67,599.58,922.67,599.35,922.67,599.12z"/>
		<path class="st1" d="M851.66,605.1c0,1.9-0.02,3.3,0,4.69c0.05,2.52,1.3,3.79,3.88,3.77c4.38-0.03,8.75-0.01,13.31-0.01
			c0,1.44,0,2.67,0,4.05c-7.04,0-14,0-21.18,0c0-9.6,0-19.21,0-29.01c7.04,0,14.07,0,21.22,0c0,1.29,0,2.45,0,3.94
			c-5.63,0-11.27,0-17.09,0c-0.06,1.07-0.13,1.84-0.14,2.61c-0.06,5.54-0.05,5.49,5.37,5.82c2.85,0.17,5.68,0.58,8.86,0.92
			c0.04,0.82,0.1,1.86,0.17,3.22C861.29,605.1,856.65,605.1,851.66,605.1z"/>
		<path class="st1" d="M1093.89,592.55c-5.78,0-10.85,0-16.12,0c0-1.33,0-2.56,0-3.97c7.65,0,15.27,0,23.74,0
			c-5.93,8.55-11.54,16.63-17.35,25.01c5.53,0,10.67,0,15.99,0c0,1.42,0,2.64,0,4.01c-7.73,0-15.34,0-23.95,0
			C1082.23,609.05,1087.87,601.06,1093.89,592.55z"/>
		<path class="st1" d="M961.71,617.44c1.41-3.8,3.12-7.46,4.11-11.3c1.45-5.65,4.7-10.52,6.46-16.02c0.25-0.79,1.83-1.55,2.82-1.58
			c0.79-0.02,2.01,0.93,2.34,1.74c3.48,8.51,6.82,17.08,10.19,25.64c0.2,0.52,0.27,1.09,0.37,1.54c-3.88,1.65-4.92-1.27-5.55-3.77
			c-0.58-2.31-1.7-2.67-3.72-2.6c-3.48,0.12-6.96,0.03-10.39,0.03C965.74,617.98,965.74,617.98,961.71,617.44z M974.87,594.09
			c-1.78,4.58-3.35,8.63-4.96,12.78c3.3,0,6.45,0,9.91,0C978.2,602.7,976.63,598.65,974.87,594.09z"/>
		<path class="st4" d="M776.79,627.99c18.14,0.17,36.27,0.48,54.41,0.49c81.56,0.04,163.13,0,244.69-0.02c18.37,0,36.74,0,55.11,0
			c0.99,0,1.97,0,2.96,0c0.01,0.21,0.01,0.43,0.02,0.64c-0.86,0-1.72,0-2.59,0c-117.4,0-234.81,0-352.21,0
			c-0.8,0-1.59-0.05-2.39-0.08C776.79,628.67,776.79,628.33,776.79,627.99z"/>
		<path class="st1" d="M808.33,588.61c2.96-0.35,5.07-0.6,6.54,2.64c1.68,3.69,4.31,6.95,6.79,10.8c2.45-3.8,5.08-7.1,6.85-10.82
			c1.49-3.14,3.57-3.02,6.52-2.62c-3.12,4.93-6.37,9.48-8.94,14.39c-1.32,2.51-1.52,5.64-2.01,8.53c-0.33,1.98-0.29,4.02-0.41,6.1
			c-1.64,0-2.81,0-4.35,0c0-2.49-0.34-5,0.07-7.39c0.75-4.34-1.88-7.22-3.87-10.41C813.21,596.14,810.83,592.51,808.33,588.61z"/>
		<path class="st3" d="M923.8,492.09c1.34,4.11,2.64,8.14,4.05,12.48c-4.2,0-8.16,0.02-12.12-0.03c-0.39,0-0.94-0.31-1.13-0.64
			c-2.22-3.86-4.39-7.76-6.67-11.81C913.49,492.09,918.67,492.09,923.8,492.09z"/>
		<path class="st3" d="M985.19,548.87c-1.64,3.16-3.25,6.34-4.97,9.46c-0.22,0.39-0.98,0.66-1.5,0.69
			c-4.02,0.22-8.05,0.36-12.07,0.53c1.82-3.57,3.64-7.13,5.46-10.7l-0.03,0.03C976.45,548.89,980.82,548.88,985.19,548.87z"/>
		<path class="st3" d="M894.19,467.54c10.2-0.01,20.4-0.01,30.6-0.01c-0.25,1.52-0.51,3.05-0.78,4.72c-8.69,0-17.24,0.03-25.8-0.02
			C895.17,472.21,895.39,469.23,894.19,467.54z"/>
		<path class="st1" d="M985.19,548.87c-4.37,0.01-8.74,0.01-13.11,0.02c-1.8-3.37-3.6-6.74-5.4-10.11
			c4.06-0.04,8.12-0.14,12.18-0.05c0.77,0.02,1.82,0.67,2.22,1.33c1.5,2.47,2.81,5.06,4.13,7.63
			C985.37,548.01,985.2,548.48,985.19,548.87z"/>
		<path class="st1" d="M1029,439.43c3.99-0.03,7.97-0.08,11.96-0.08c0.56,0,1.46,0.02,1.62,0.34c1.73,3.26,3.35,6.59,5,9.9
			c-4.51,0.04-9.02,0.08-13.53,0.12c-0.1-0.07-0.2-0.15-0.3-0.23c-0.28-1.02-0.4-2.12-0.87-3.04
			C1031.67,444.05,1030.3,441.76,1029,439.43z"/>
		<path class="st3" d="M1034.05,449.7c4.51-0.04,9.02-0.08,13.53-0.12c-1.5,2.93-2.89,5.93-4.56,8.76
			c-0.43,0.72-1.75,1.25-2.68,1.28c-3.77,0.11-7.55,0-11.32-0.04C1030.69,456.29,1032.37,452.99,1034.05,449.7z"/>
		<path class="st1" d="M1059.14,588.55c1.4,0,2.57,0,3.88,0c0,9.67,0,19.2,0,28.97c-1.21,0-2.44,0-3.88,0
			C1059.14,607.99,1059.14,598.38,1059.14,588.55z"/>
		<path class="st3" d="M978.36,636.46c-1.41,2.67-2.67,5.07-4.33,8.21c-1.34-2.44-2.38-4.32-3.42-6.21c-0.3,0.11-0.6,0.23-0.91,0.34
			c0,1.25,0.09,2.51-0.04,3.74c-0.05,0.53-0.54,1.02-0.83,1.53c-0.33-0.47-0.93-0.94-0.94-1.43c-0.08-3.47-0.04-6.94-0.04-11.15
			c3.91,2.22,3.96,6.37,6.33,8.98c2.36-2.54,2.57-6.61,6.13-9.03c0,4.72,0,8.65,0,13.41C977.56,642.06,979.37,639.18,978.36,636.46z
			"/>
		<path class="st3" d="M1133.97,633.34c-0.84,2.9-1.63,5.82-2.54,8.69c-0.24,0.75-0.87,1.36-1.32,2.04
			c-0.55-0.7-1.32-1.32-1.61-2.11c-0.73-2.01-1.24-4.09-2.09-7.02c-0.88,3.1-1.45,5.33-2.18,7.52c-0.21,0.63-0.89,1.1-1.35,1.64
			c-0.49-0.52-1.25-0.96-1.44-1.57c-1.03-3.36-1.92-6.76-3.01-10.72c3.49,1.3,2.18,4.96,4.41,7.45c0.59-1.25,1.03-2.2,1.48-3.16
			c0.64-1.33,1.29-2.66,1.93-3.99c0.74,1.33,1.62,2.6,2.18,4c0.62,1.52,0.95,3.16,1.52,5.13c0.78-2.71,1.58-5.01,2.08-7.37
			c0.32-1.48,0.91-2.12,2.41-1.78C1134.29,632.5,1134.13,632.92,1133.97,633.34z"/>
		<path class="st3" d="M838.92,631.67c3.73,2.01,2.35,6.25,4.41,8.85c1.59-2.65,1.02-6.3,3.58-8.37c-0.4,6.95-2.43,11.73-4.56,11.77
			c-0.76-2.69-1.52-5.38-2.5-8.86c-1.09,3.45-1.96,6.2-3.11,9.86c-0.88-1.23-1.59-1.87-1.85-2.66c-1.08-3.22-2.02-6.49-2.61-9.95
			c3.05,1.85,2.05,5.88,4.12,8.4C837.2,637.83,837.98,635.02,838.92,631.67z"/>
		<path class="st3" d="M813.31,637.83c-0.14-6.69-0.14-6.41,6.55-6.34c4.04,0.04,4.23,0.2,4.23,4.19c0,0.5,0,0.99,0,1.49
			c0.01,7.17-1.39,8.34-8.6,6.83c-0.85-0.18-1.8-1.4-2.09-2.33C813.04,640.49,813.31,639.11,813.31,637.83z M815.2,642.11
			c2.45,0,4.68,0,6.95,0c0-2.98,0-5.8,0-8.66c-2.39,0-4.62,0-6.95,0C815.2,636.35,815.2,639.1,815.2,642.11z"/>
		<path class="st3" d="M958.9,637.92c0,0.59,0,1.19,0,1.78c-0.01,4.2-0.2,4.39-4.34,4.41c-6.36,0.02-6.61,0.58-6.44-6.45
			c0.02-0.79,0.07-1.59-0.01-2.38c-0.26-2.78,0.91-4.09,3.75-3.78c0.2,0.02,0.4,0.01,0.59,0
			C959.11,631.4,959.02,631.11,958.9,637.92z M956.91,642.17c0-3.13,0-5.95,0-8.7c-2.42,0-4.65,0-6.81,0c0,3.02,0,5.84,0,8.7
			C952.46,642.17,954.61,642.17,956.91,642.17z"/>
		<path class="st3" d="M1110.51,638.03c-0.09,6.61,0.99,6.06-6.01,6.05c-4.19,0-4.19-0.02-4.2-4.03c0-1.89-0.09-3.78,0.04-5.66
			c0.06-0.8,0.54-2.23,0.89-2.25c2.87-0.16,5.75-0.11,8.62,0.03c0.24,0.01,0.59,1.09,0.63,1.68
			C1110.57,635.25,1110.51,636.64,1110.51,638.03z M1108.51,642.19c0-3.11,0-5.93,0-8.72c-2.21,0-4.24,0-6.24,0
			c0,3.01,0,5.83,0,8.72C1104.41,642.19,1106.37,642.19,1108.51,642.19z"/>
		<path class="st3" d="M1089.56,640.47c0-3.02,0-5.58,0-8.15c1.99,0.26,2.23,2.1,1.59,12.01c-4.07-2-5.19-6.51-8.78-9.28
			c0,2.83,0.05,5.26-0.05,7.68c-0.02,0.46-0.67,0.89-1.02,1.33c-0.25-0.44-0.72-0.88-0.73-1.33c-0.06-3.47-0.03-6.94-0.03-10.92
			C1085.2,633.1,1086.03,637.82,1089.56,640.47z"/>
		<path class="st3" d="M966.68,538.79c1.8,3.37,3.6,6.74,5.4,10.11c0,0,0.03-0.03,0.03-0.03c-3.97,0.01-7.94,0.02-11.92,0.02
			c1.55-2.68,3.06-5.38,4.67-8.03C965.33,540.08,966.07,539.47,966.68,538.79z"/>
		<path class="st3" d="M794.22,643.75c0-3.76,0-7.51,0-11.86c4.56,1.3,5.11,6.45,8.9,8.46c0-2.4-0.06-4.64,0.05-6.88
			c0.02-0.46,0.64-0.9,0.99-1.35c0.25,0.44,0.72,0.88,0.72,1.32c0.06,3.47,0.03,6.94,0.03,11.13c-4.35-2.18-5.51-6.63-8.81-9.25
			c-0.79,2.82,0.65,6.15-0.79,8.86C794.96,644.04,794.59,643.9,794.22,643.75z"/>
		<path class="st3" d="M1025.5,634.51c0,3.65,0,6.47,0,9.31c-2.12-0.21-2.42-2.54-1.7-11.89c4.55,0.89,5.23,5.65,8.67,8.19
			c0-2.85,0-5.41,0-8.12c2.09,0.74,2.59,5.72,1.49,12.9C1031.08,641.37,1028.59,638.31,1025.5,634.51z"/>
		<path class="st1" d="M1034.05,449.7c-1.68,3.29-3.36,6.59-5.04,9.88c-0.29,0.01-0.8,0.11-0.85,0c-1.71-3.55-3.38-7.12-5.06-10.69
			c3.55,0.19,7.1,0.38,10.65,0.56C1033.85,449.55,1033.95,449.63,1034.05,449.7z"/>
		<path class="st3" d="M1033.76,449.46c-3.55-0.19-7.1-0.38-10.65-0.56c1.96-3.16,3.93-6.32,5.89-9.47c1.31,2.33,2.67,4.62,3.89,7
			C1033.35,447.35,1033.48,448.45,1033.76,449.46z"/>
		<path class="st1" d="M960.19,548.88c3.97-0.01,7.94-0.02,11.92-0.02c-1.82,3.57-3.64,7.13-5.46,10.7
			C964.5,556,962.35,552.44,960.19,548.88z"/>
		<path class="st3" d="M902.12,644.1c0-4.24,0-8.19,0-12.59c2.57,0,5.21-0.03,7.84,0.04c0.33,0.01,0.66,0.5,0.98,0.76
			c-0.37,0.33-0.72,0.92-1.1,0.94c-1.87,0.1-3.76,0.04-5.89,0.04c-0.05,1.17-0.1,2.2-0.15,3.44c1.02,0.06,1.91,0.01,2.75,0.18
			c1.09,0.23,2.14,0.63,3.2,0.95c-1.12,0.28-2.22,0.62-3.36,0.8c-0.76,0.12-1.55,0.02-2.47,0.02c0,1.25,0,2.28,0,3.58
			c1.95,0,3.82-0.05,5.68,0.03c0.45,0.02,0.88,0.47,1.33,0.73c-0.44,0.36-0.87,1-1.33,1.02C907.22,644.15,904.83,644.1,902.12,644.1
			z"/>
		<path class="st3" d="M991.71,639.27c-1.21,1.6,0.66,3.96-2.05,5.15c0-4.43,0-8.45,0-12.92c1.9,0,3.95-0.14,5.97,0.03
			c2.85,0.25,3.55,1.47,3.47,4.88c-0.07,2.71-1.76,2.94-3.82,2.86C994.09,639.24,992.89,639.27,991.71,639.27z M991.37,637.2
			c0.27,0.07,0.63,0.25,0.99,0.26c1.57,0.03,3.13,0.01,4.67,0.01c0.48-4.49,0.2-4.68-5.65-3.91
			C991.37,634.72,991.37,635.88,991.37,637.2z"/>
		<path class="st3" d="M884.01,632c0.29,1.51,0.58,3.03,0.91,4.72c1.9,0,3.93,0,6.22,0c0-1.48,0-2.92,0-4.37
			c1.96,0.16,2.56,5.5,1.5,11.97c-2.78-1.22-0.51-3.81-1.96-5.46c-1.67,0-3.7,0-5.95,0c-0.09,1.71-0.18,3.44-0.27,5.23
			c-1.8-0.71-2.34-6.45-1.32-11.93C883.43,632.11,883.72,632.06,884.01,632z"/>
		<path class="st3" d="M785.61,644.67c-2.04-1.39-4.08-2.78-5.83-3.97c-0.68,1.26-1.33,2.48-1.99,3.69c-0.3-0.14-0.6-0.28-0.9-0.41
			c0-3.92,0-7.85,0-11.77c0.24-0.04,0.48-0.07,0.72-0.11c0.17,1.29,0.34,2.59,0.59,4.44c2.4-1.7,4.65-3.28,6.9-4.87
			c0.21,0.28,0.42,0.55,0.63,0.83c-1.91,1.77-3.83,3.54-5.36,4.96c1.9,2.06,3.88,4.21,5.85,6.36
			C786.02,644.1,785.81,644.38,785.61,644.67z"/>
		<path class="st3" d="M939.5,634.63c-2.65-0.63-5.13-1.21-7.94-1.88c0,3.45,0,6.28,0,9.89c2.7-0.53,5.33-1.05,8.06-1.6
			c0.59,1.96,0,3.19-2.88,3.09c-7.34-0.25-6.57,1.23-6.6-6.37c-0.02-6.57,0-6.57,6.69-6.27
			C939.57,631.62,939.83,631.96,939.5,634.63z"/>
		<path class="st3" d="M1015.82,644.8c-3.4-5.03-6.81-5.58-10.25,0c-0.13-0.32-0.25-0.64-0.38-0.96c1.39-3.62,2.74-7.24,4.2-10.83
			c0.17-0.42,0.96-0.93,1.34-0.85c0.54,0.12,1.2,0.66,1.41,1.18c1.38,3.47,2.65,6.99,3.96,10.49
			C1016.01,644.16,1015.91,644.48,1015.82,644.8z M1010.65,634.03c-0.86,2.11-1.43,3.5-2.07,5.09c1.44,0,2.69,0,4.04,0
			C1012.02,637.58,1011.44,636.07,1010.65,634.03z"/>
		<path class="st3" d="M870.82,633.29c0,3.21,0.05,6.17-0.05,9.13c-0.02,0.56-0.63,1.09-0.97,1.64c-0.26-0.54-0.72-1.07-0.74-1.62
			c-0.07-2.96-0.03-5.93-0.03-8.52c-1.41-0.66-2.49-1.16-3.58-1.66c1.24-0.25,2.46-0.62,3.71-0.73c1.38-0.13,2.79-0.13,4.17,0.02
			c0.58,0.06,1.1,0.64,1.65,0.98c-0.54,0.25-1.06,0.62-1.63,0.73C872.69,633.38,871.97,633.29,870.82,633.29z"/>
		<path class="st3" d="M1052.37,632.12c-1.52,3.87-3.04,7.73-4.76,12.11c-0.4-2.01-0.48-4.15-1.27-5.98
			c-0.87-2.03-2.38-3.79-3.95-6.19c3.8,0.29,3.57,3.86,5.34,5.17c1.39-1.86,2.78-3.7,4.16-5.54
			C1052.05,631.83,1052.21,631.98,1052.37,632.12z"/>
		<path class="st5" d="M961.23,429.76c-15.36-0.04-30.73-0.07-46.09-0.11c1.45-0.16,2.9-0.46,4.35-0.46
			c14.31-0.03,28.61-0.02,43-0.02c-0.18,0.25-0.25,0.46-0.38,0.49C961.84,429.74,961.53,429.73,961.23,429.76z"/>
		<path class="st6" d="M1133.97,633.34c0.16-0.42,0.32-0.83,0.48-1.25c0.02-0.39,0.05-0.78,0.07-1.17c0.11,0,0.22,0,0.33,0
			c0,5.6,0,11.21,0,16.81c-0.05,0-0.09,0-0.14,0.01C1134.46,642.94,1134.21,638.14,1133.97,633.34z"/>
		<path class="st7" d="M775.11,647.18c0-5.48,0-10.96,0-16.43c0.1,0,0.21,0,0.31,0c0,5.48,0,10.96,0,16.43
			C775.32,647.18,775.21,647.18,775.11,647.18z"/>
		<path class="st7" d="M776.79,627.99c0,0.34,0,0.68,0,1.03c-0.51,0-1.03,0-1.54,0c-0.03-0.17-0.07-0.34-0.1-0.51
			C775.69,628.33,776.24,628.16,776.79,627.99z"/>
		<path class="st5" d="M887.21,594.41c0.15-0.57,0.3-1.15,0.45-1.72C887.51,593.27,887.36,593.84,887.21,594.41z"/>
		<path class="st5" d="M887.63,613.45c-0.15-0.19-0.29-0.38-0.44-0.57C887.34,613.07,887.49,613.26,887.63,613.45z"/>
		<path class="st5" d="M1021.6,610.49c0,0.23,0,0.46,0,0.69C1021.6,610.95,1021.6,610.72,1021.6,610.49z"/>
		<path class="st5" d="M887.21,611.19c0-0.23,0-0.47,0-0.7C887.21,610.72,887.21,610.96,887.21,611.19z"/>
		<path class="st5" d="M922.67,599.12c0,0.23,0,0.46,0,0.69c-0.07-0.16-0.16-0.32-0.19-0.49
			C922.47,599.27,922.61,599.19,922.67,599.12z"/>
		<path class="st5" d="M887.22,599.82c0-0.23,0-0.47,0-0.7C887.22,599.35,887.22,599.58,887.22,599.82z"/>
		<path class="st5" d="M1021.6,599.12c0,0.23,0,0.46,0,0.69C1021.6,599.58,1021.6,599.35,1021.6,599.12z"/>
		<path class="st0" d="M978.19,520.65c-18.5,1.81-36.8-13.61-39.74-31.82c-2.87-17.75,5.19-33.54,20.01-41.68
			c8.46-4.65,17.56-5.32,27.04-3.28c7.51,1.61,14.16,4.77,19.1,10.48c3.51,4.05,5.93,9.05,8.83,13.62
			c-6.59,0.07-13.19,0.13-19.78,0.2c-3.99,6.59-8.09,13.11-11.92,19.79c-3.58,6.25-6.88,12.66-10.3,19.01c0,0,0.04-0.02,0.04-0.02
			c-0.16,0.2-0.32,0.41-0.48,0.61C973.39,511.91,975.79,516.28,978.19,520.65z M945.04,466.25c-0.38,0.99-0.76,1.98-1.14,2.97
			c-4.65,11.61-2.72,22.43,3.72,32.84c1.38,2.24,3.01,2.67,5.35,2.55c3.37-0.18,6.75-0.1,10.13-0.13c0.45-0.45,1.03-0.82,1.34-1.36
			c3.96-6.89,7.9-13.79,11.79-20.72c2.88-5.14,5.68-10.32,8.52-15.49c-3.51-6.19-7.11-12.34-10.48-18.61
			c-0.89-1.66-1.99-2.07-3.55-1.71c-2.26,0.53-4.54,1.05-6.7,1.86c-3.83,1.44-6.82,4.16-10.08,6.56
			C949.77,458.07,947.33,461.99,945.04,466.25z"/>
		<path class="st3" d="M971.43,506.96c3.42-6.34,6.71-12.76,10.3-19.01c3.83-6.68,7.94-13.2,11.92-19.79
			c7.18,12.78,14.35,25.56,21.78,38.79C1000.44,506.96,985.93,506.96,971.43,506.96z"/>
		<path class="st8" d="M970.99,507.55c0.16-0.2,0.32-0.41,0.48-0.61C971.31,507.14,971.15,507.34,970.99,507.55z"/>
		<path class="st0" d="M1033.17,605.15c0.8,0,1.59,0,2.39,0c4.93,0,4.81,0,4.88,5.06c0.04,2.73-1.41,3.76-3.7,3.88
			c-3.08,0.15-6.16,0.04-9.25,0.03c-0.39,0-1.06,0.03-1.13-0.15c-0.38-0.93-1.15-2.41-0.8-2.8c1.6-1.75-1.6-5.54,2.54-5.98
			C1029.77,605.01,1031.48,605.16,1033.17,605.15z"/>
		<path class="st0" d="M1025.42,592.45c4.49,0.26,8.7,0.34,12.84,0.9c0.66,0.09,1.2,2.29,1.48,3.58c0.35,1.6-0.2,3.13-2.02,3.33
			c-3.41,0.36-6.85,0.58-10.28,0.55c-0.68-0.01-1.81-1.3-1.94-2.13C1025.22,596.78,1025.42,594.79,1025.42,592.45z"/>
		<path class="st0" d="M974.87,594.09c1.76,4.55,3.33,8.61,4.94,12.78c-3.46,0-6.61,0-9.91,0
			C971.52,602.72,973.09,598.68,974.87,594.09z"/>
		<path class="st0" d="M815.2,642.11c0-3.01,0-5.76,0-8.66c2.33,0,4.55,0,6.95,0c0,2.86,0,5.68,0,8.66
			C819.88,642.11,817.65,642.11,815.2,642.11z"/>
		<path class="st0" d="M956.91,642.17c-2.3,0-4.46,0-6.81,0c0-2.86,0-5.68,0-8.7c2.16,0,4.38,0,6.81,0
			C956.91,636.23,956.91,639.05,956.91,642.17z"/>
		<path class="st0" d="M1108.51,642.19c-2.14,0-4.1,0-6.24,0c0-2.89,0-5.71,0-8.72c2,0,4.02,0,6.24,0
			C1108.51,636.26,1108.51,639.08,1108.51,642.19z"/>
		<path class="st0" d="M991.37,637.2c0-1.32,0-2.49,0-3.63c5.85-0.77,6.14-0.58,5.65,3.91c-1.53,0-3.1,0.02-4.67-0.01
			C992,637.46,991.64,637.28,991.37,637.2z"/>
		<path class="st0" d="M1010.65,634.03c0.79,2.03,1.37,3.55,1.97,5.09c-1.35,0-2.6,0-4.04,0
			C1009.22,637.53,1009.79,636.14,1010.65,634.03z"/>
		<path class="st1" d="M943.9,469.22c0.38-0.99,0.76-1.98,1.14-2.97c1.12,0.2,2.24,0.58,3.36,0.59c12.11,0.06,24.23,0.06,36.34,0.07
			c-2.84,5.16-5.63,10.35-8.52,15.49c-3.89,6.93-7.83,13.83-11.79,20.72c-0.31,0.53-0.89,0.91-1.34,1.36
			c-1.84-5.21-4.54-9.99-7.33-14.73c-1.07-1.82-1.9-3.77-2.98-5.58c-1.91-3.19-3.95-6.3-5.87-9.48
			C945.83,472.9,944.9,471.04,943.9,469.22z"/>
		<path class="st3" d="M984.74,466.91c-12.11-0.02-24.23-0.02-36.34-0.07c-1.12-0.01-2.24-0.38-3.36-0.59
			c2.3-4.27,4.73-8.18,8.89-11.24c3.26-2.4,6.25-5.11,10.08-6.56c2.16-0.82,4.44-1.34,6.7-1.86c1.56-0.36,2.66,0.05,3.55,1.71
			C977.63,454.57,981.23,460.72,984.74,466.91z"/>
		<path class="st3" d="M943.9,469.22c1,1.82,1.93,3.68,3.01,5.46c1.92,3.18,3.97,6.29,5.87,9.48c1.08,1.81,1.92,3.76,2.98,5.58
			c2.78,4.74,5.49,9.52,7.33,14.73c-3.38,0.03-6.76-0.04-10.13,0.13c-2.33,0.12-3.96-0.31-5.35-2.55
			C941.18,491.65,939.25,480.84,943.9,469.22z"/>
	</g>
</g>
</svg>
